<?xml version="1.0" encoding="iso-8859-1"?>
<!-- Generator: Adobe Illustrator 19.0.0, SVG Export Plug-In . SVG Version: 6.00 Build 0)  -->
<svg version="1.1" id="Capa_1" xmlns="http://www.w3.org/2000/svg" xmlns:xlink="http://www.w3.org/1999/xlink" x="0px" y="0px"
	 viewBox="0 0 512 512" style="enable-background:new 0 0 512 512;" xml:space="preserve">
<g>
	<g>
		<path d="M256,147.097c-54.318,0-98.509,44.19-98.509,98.508s44.19,98.508,98.509,98.508c54.317,0,98.508-44.19,98.508-98.508
			S310.317,147.097,256,147.097z M298.144,266.536c5.858,5.858,5.858,15.355,0,21.214c-2.929,2.929-6.769,4.394-10.606,4.394
			c-3.839,0-7.678-1.464-10.606-4.394l-20.931-20.931l-20.269,20.269c-2.929,2.929-6.769,4.394-10.606,4.394
			c-3.839,0-7.678-1.464-10.606-4.394c-5.858-5.858-5.858-15.355,0-21.214l20.269-20.269l-21.417-21.417
			c-5.858-5.858-5.858-15.355,0-21.214c5.857-5.858,15.355-5.857,21.214,0l21.417,21.417l22.08-22.079
			c5.858-5.858,15.356-5.858,21.214,0c5.858,5.858,5.858,15.355,0,21.214l-22.08,22.079L298.144,266.536z"/>
	</g>
</g>
<g>
	<g>
		<path d="M446.167,54.799L261.159,0.725l-0.384-0.107c-3.122-0.823-6.428-0.824-9.552,0l-0.193,0.051L65.831,54.799
			C52.171,58.511,42.65,70.946,42.65,85.121v263.777c0,34.633,19.116,65.859,49.92,81.613l121.146,71.205l0.842,0.459
			C227.534,508.726,241.764,512,256,512c14.231-0.001,28.469-3.275,41.442-9.823l0.429-0.216l121.558-71.448
			c30.805-15.754,49.921-46.98,49.921-81.614V85.121C469.35,70.947,459.83,58.511,446.167,54.799z M256,374.115
			c-70.86,0-128.51-57.649-128.51-128.509c0-70.86,57.649-128.509,128.51-128.509c70.859,0,128.509,57.649,128.509,128.509
			C384.509,316.466,326.86,374.115,256,374.115z"/>
	</g>
</g>
<g>
</g>
<g>
</g>
<g>
</g>
<g>
</g>
<g>
</g>
<g>
</g>
<g>
</g>
<g>
</g>
<g>
</g>
<g>
</g>
<g>
</g>
<g>
</g>
<g>
</g>
<g>
</g>
<g>
</g>
</svg>
